<svg height="70" viewBox="0 0 605 70" width="605" xmlns="http://www.w3.org/2000/svg"><g fill="#fff" fill-rule="evenodd"><path d="m114.035 41.9 11.44-1.1c.22 1.98.605 2.97 1.43 4.07 1.32 1.65 3.63 2.585 6.435 2.585 4.235 0 6.765-1.87 6.765-4.95 0-1.705-.88-3.19-2.31-3.85-1.155-.55-2.53-.935-8.25-2.255-5.06-1.1-6.82-1.76-8.855-3.19-3.465-2.42-5.335-6.105-5.335-10.56 0-8.47 6.82-13.805 17.655-13.805 6.985 0 12.32 2.145 15.29 6.27 1.375 1.815 2.035 3.465 2.75 6.6l-11.66 1.265c-.66-3.575-2.64-5.06-6.82-5.06-3.355 0-5.83 1.815-5.83 4.345 0 1.54.825 2.695 2.585 3.52 1.1.495 1.1.495 7.59 1.815 4.18.88 6.82 1.815 8.91 3.135 3.96 2.475 5.94 6.16 5.94 11.22 0 4.125-1.32 7.645-3.85 10.12-3.19 3.08-8.03 4.675-14.465 4.675-4.675 0-9.295-.99-12.265-2.695-2.75-1.54-4.785-3.905-5.94-7.04-.55-1.32-.825-2.585-1.21-5.115zm66.11-19.745h11.385c-.33 2.585-.44 4.895-.44 8.25v16.995c0 3.795.11 6.05.44 8.25h-10.945v-2.365c0-.275 0-1.1.055-1.485-3.63 3.41-6.765 4.73-11.44 4.73-3.685 0-6.655-1.045-8.745-3.08-2.2-2.2-3.135-4.895-3.135-9.24v-13.805c0-3.19-.165-5.94-.44-8.25h11.44c-.33 2.64-.44 4.95-.44 8.25v11.275c0 2.255.22 3.245.88 4.125.77.99 1.98 1.54 3.575 1.54 3.025 0 6.105-2.145 8.25-5.665v-11.275c0-3.08-.11-5.39-.44-8.25zm15.895 23.54 10.89-1.21c.55 2.86 2.42 4.125 6.105 4.125 3.3 0 5.17-.935 5.17-2.64 0-.825-.44-1.54-1.21-1.98s-1.485-.66-4.51-1.265c-4.18-.825-6.325-1.375-8.14-1.98-2.64-.99-4.455-2.255-5.5-3.905-.88-1.485-1.375-3.355-1.375-5.225 0-6.6 5.555-10.615 14.74-10.615 5.225 0 9.13 1.155 11.715 3.52 1.815 1.595 2.695 3.19 3.575 6.27l-10.615 1.155c-.275-2.255-1.65-3.245-4.62-3.245-2.86 0-4.62.935-4.62 2.365 0 1.485 1.155 2.035 6.6 3.245 5.39 1.155 7.095 1.65 9.02 2.64 3.575 1.76 5.28 4.455 5.28 8.415 0 2.915-.99 5.555-2.805 7.315-2.64 2.64-7.15 4.015-13.035 4.015-6.93 0-11.825-1.87-14.465-5.5-1.1-1.54-1.65-2.86-2.2-5.5zm41.58-23.54v-1.155c0-2.75-.11-4.95-.44-7.535h11.22c-.275 2.255-.44 4.895-.44 7.535v1.155h1.98c2.42 0 3.685-.055 5.39-.275v9.13c-1.65-.22-3.08-.33-5.06-.33h-2.31v14.08c0 1.54.275 2.31.99 2.805.605.385 1.485.605 2.53.605 1.43 0 2.475-.275 3.85-.99l.825 8.36c-2.475.77-4.62 1.1-7.59 1.1-3.74 0-6.325-.605-8.085-1.925-2.09-1.595-2.86-3.465-2.86-7.205v-16.83h-2.09c-1.76 0-3.19.11-4.785.33v-9.185c1.595.22 2.97.33 4.895.33zm44.055 11.825v-1.265c0-2.64-1.595-3.85-5.225-3.85-3.52 0-5.39 1.155-6.215 3.85l-10.505-1.705c1.1-3.245 2.31-5.005 4.62-6.655 2.97-2.09 7.04-3.135 12.375-3.135 4.07 0 8.03.77 10.175 1.925 3.52 1.925 5.06 4.95 5.06 9.9v14.85c0 3.355.11 5.335.385 7.81h-10.67v-2.53c-3.08 2.365-6.16 3.3-10.67 3.3-4.18 0-7.315-.99-9.515-3.025-1.98-1.815-3.025-4.455-3.025-7.48 0-3.465 1.375-6.215 4.015-8.03 2.805-1.98 6.49-3.135 11.44-3.575 2.145-.22 3.795-.275 7.755-.385zm0 8.58v-1.54c-4.895.11-7.26.385-9.515 1.1-1.98.66-3.19 2.035-3.19 3.63 0 1.98 1.65 3.135 4.51 3.135 2.255 0 4.73-.825 6.215-2.09 1.265-1.1 1.98-2.585 1.98-4.235zm16.665-32.615h11.165v8.25h-11.165zm-.165 12.21h11.495c-.33 2.255-.44 4.455-.44 8.305v16.94c0 2.97.165 5.94.44 8.305h-11.495c.33-2.695.44-4.785.44-8.305v-16.94c0-3.575-.11-5.83-.44-8.305zm28.71 33.55h-11.385c.33-2.585.44-4.895.44-8.305v-16.94c0-3.795-.11-6.105-.44-8.305h10.945v2.31c0 .33-.055 1.155-.055 1.54 3.465-3.3 6.82-4.675 11.33-4.675 3.795 0 6.82 1.045 8.855 3.08 2.2 2.2 3.135 4.895 3.135 9.24v13.805c0 3.19.165 5.94.44 8.25h-11.44c.33-2.64.44-4.95.44-8.305v-11.275c0-2.2-.22-3.135-.88-4.07-.715-.99-1.98-1.54-3.63-1.54-3.08 0-5.83 1.925-8.195 5.775v11.11c0 3.135.11 5.445.44 8.305zm92.785 0h-11c-.22-1.76-.605-3.685-1.155-5.885l-4.18-16.17c-.55-2.145-.99-4.675-1.54-8.305-.33 2.255-.99 5.72-1.65 8.305l-4.07 16.225c-.715 2.75-1.045 4.345-1.21 5.83h-10.945c-.275-1.595-.55-2.75-1.375-5.94l-8.8-33c-.77-2.805-1.54-5.335-2.09-6.82h12.54c.055 1.98.33 3.74.77 6.05l3.52 16.72c.165.825.55 3.41 1.21 7.755.825-4.62 1.21-6.6 1.54-7.755l4.4-17.05c.66-2.475.99-4.18 1.21-5.72h9.79c.22 1.43.55 2.97 1.265 5.555l4.455 16.94c.44 1.76.825 3.575 1.54 8.03.11-1.045.11-1.045.44-3.355.165-1.21.55-3.85.77-4.73l3.465-16.39c.55-2.53.77-4.125.825-6.05h12.485c-.55 1.485-1.32 4.07-2.035 6.82l-8.8 32.945c-.715 2.585-1.21 4.675-1.375 5.995zm49.005-13.695h-24.75c.55 4.455 3.135 6.82 7.48 6.82 2.2 0 4.125-.715 5.555-2.035.825-.77 1.21-1.375 1.65-2.805l9.57 2.695c-1.265 2.86-2.09 4.125-3.63 5.665-3.135 3.08-7.535 4.675-12.98 4.675-5.39 0-9.625-1.54-12.76-4.675-3.245-3.3-5.005-7.975-5.005-13.42 0-10.89 6.985-18.095 17.49-18.095 8.58 0 14.575 4.675 16.5 12.87.44 1.76.66 4.07.825 7.205 0 .22 0 .55.055 1.1zm-24.585-7.59h14.135c-.77-3.52-3.135-5.39-6.93-5.39-3.905 0-6.27 1.76-7.205 5.39zm62.425 7.59h-24.75c.55 4.455 3.135 6.82 7.48 6.82 2.2 0 4.125-.715 5.555-2.035.825-.77 1.21-1.375 1.65-2.805l9.57 2.695c-1.265 2.86-2.09 4.125-3.63 5.665-3.135 3.08-7.535 4.675-12.98 4.675-5.39 0-9.625-1.54-12.76-4.675-3.245-3.3-5.005-7.975-5.005-13.42 0-10.89 6.985-18.095 17.49-18.095 8.58 0 14.575 4.675 16.5 12.87.44 1.76.66 4.07.825 7.205 0 .22 0 .55.055 1.1zm-24.585-7.59h14.135c-.77-3.52-3.135-5.39-6.93-5.39-3.905 0-6.27 1.76-7.205 5.39zm28.985-24.475h11.165c-.33 2.255-.44 4.62-.44 8.305v15.455l6.05-5.995c2.53-2.53 3.74-3.96 4.785-5.555h14.63c-2.145 1.87-2.805 2.475-5.775 5.39l-7.975 7.7 9.185 13.42c3.355 4.84 3.575 5.17 5.115 7.04h-14.025c-.825-2.31-2.035-4.73-3.63-7.37l-4.18-6.82-4.125 3.96v2.2c0 4.51.055 5.83.44 8.03h-11.22c.33-2.475.44-4.675.44-8.305v-29.15c0-3.74-.165-6.27-.44-8.305zm40.26 0h11.495c-.33 2.31-.44 4.565-.44 8.305v29.15c0 3.3.11 5.39.44 8.305h-11.495c.33-2.475.44-4.345.44-8.305v-29.15c0-3.905-.11-6.215-.44-8.305zm28.325 42.79-10.285-23.21c-2.365-5.5-2.585-5.995-3.3-7.37h11.935c.275 1.76.99 4.125 2.145 7.095l5.06 12.705 4.895-12.485c1.54-3.795 2.035-5.39 2.365-7.315h11.935c-1.375 2.86-1.375 2.86-3.3 7.37l-12.595 29.095c-2.2 5.17-6.16 7.535-12.43 7.535-2.42 0-4.51-.275-7.535-.935l1.21-8.745c1.815.935 2.86 1.21 4.29 1.21 2.09 0 3.63-.935 4.455-2.585z"/><path d="m40.223529 13.456717v-13.456717h14.4657256v35.354512c2.6957715-3.5541816 5.9927439-6.3243816 9.8909173-8.3106002 8.9820454-4.5765807 19.4553214-4.1243264 31.4198281 1.3567628-2.5982662 12.9011927-8.388422 21.6400794-17.3704674 26.2166601-7.059038 3.5967595-15.0391307 4.0874727-23.940278 1.4721393v13.910526h-14.4657256v-34.9948023c-9.1989848 2.2746793-17.2819652 1.4008262-24.2489412-2.6215593-8.73021608-5.0403926-14.05507868-14.0703363-15.9745878-27.08983108 12.2349678-4.84740373 22.7175597-4.75090929 31.4477758.2894833 3.4602041 1.99774978 6.3854552 4.62222528 8.7757532 7.87342638z" fill-rule="nonzero"/></g></svg>